<svg width="166" height="96" viewBox="0 0 166 96" fill="none" xmlns="http://www.w3.org/2000/svg">
<path d="M34.8633 75.2617H46.7773V74.4316C46.1263 73.0645 45.6217 71.4368 45.2637 69.5488C44.9382 67.6283 44.7754 65.4798 44.7754 63.1035V39.6172C44.7754 36.6224 44.222 33.9857 43.1152 31.707C42.0085 29.3958 40.4785 27.4915 38.5254 25.9941C36.5723 24.4967 34.2448 23.3737 31.543 22.625C28.8737 21.8438 25.9928 21.4531 22.9004 21.4531C19.4499 21.4531 16.3737 21.9089 13.6719 22.8203C11.0026 23.6992 8.75651 24.9036 6.93359 26.4336C5.04557 27.931 3.61328 29.6562 2.63672 31.6094C1.66016 33.5625 1.1556 35.597 1.12305 37.7129H12.8418C12.8418 36.7038 13.0208 35.7598 13.3789 34.8809C13.7695 33.9694 14.3555 33.2044 15.1367 32.5859C15.918 31.9023 16.8945 31.3652 18.0664 30.9746C19.2708 30.584 20.6706 30.3887 22.2656 30.3887C24.0234 30.3887 25.5697 30.6165 26.9043 31.0723C28.2715 31.4954 29.4271 32.1139 30.3711 32.9277C31.25 33.7415 31.9173 34.7018 32.373 35.8086C32.8613 36.9154 33.1055 38.1523 33.1055 39.5195V43.084H24.6094C20.8008 43.084 17.3828 43.4421 14.3555 44.1582C11.3607 44.8743 8.83789 45.916 6.78711 47.2832C4.57357 48.748 2.88086 50.6035 1.70898 52.8496C0.569661 55.0632 0 57.6185 0 60.5156C0 62.7617 0.439453 64.8613 1.31836 66.8145C2.22982 68.735 3.49935 70.3789 5.12695 71.7461C6.72201 73.1458 8.64258 74.2526 10.8887 75.0664C13.1673 75.8477 15.6738 76.2383 18.4082 76.2383C20.1009 76.2383 21.6797 76.0755 23.1445 75.75C24.6094 75.4245 25.9766 74.9688 27.2461 74.3828C28.5156 73.8294 29.6549 73.1784 30.6641 72.4297C31.7057 71.6484 32.6335 70.8346 33.4473 69.9883C33.61 70.9974 33.7891 71.974 33.9844 72.918C34.2122 73.8294 34.5052 74.6107 34.8633 75.2617ZM20.6543 66.8633C19.1569 66.8633 17.8548 66.6842 16.748 66.3262C15.6413 65.9355 14.7135 65.4147 13.9648 64.7637C13.2161 64.1126 12.6465 63.3314 12.2559 62.4199C11.8652 61.4759 11.6699 60.4668 11.6699 59.3926C11.6699 58.0905 11.8978 56.9186 12.3535 55.877C12.8418 54.8353 13.5742 53.9401 14.5508 53.1914C15.6576 52.3125 17.1387 51.6452 18.9941 51.1895C20.8496 50.7012 23.0469 50.457 25.5859 50.457H33.1055V60.2227C32.6823 61.069 32.0801 61.8828 31.2988 62.6641C30.5176 63.4453 29.5898 64.1452 28.5156 64.7637C27.4414 65.3822 26.237 65.8867 24.9023 66.2773C23.6003 66.668 22.1842 66.8633 20.6543 66.8633Z" fill="black"/>
<path d="M107.617 49.3828V48.3574C107.617 45.3626 107.34 42.5306 106.787 39.8613C106.266 37.1921 105.485 34.7669 104.443 32.5859C103.662 31.0234 102.751 29.5911 101.709 28.2891C100.7 26.9544 99.5443 25.8314 98.2422 24.9199C96.7122 23.8132 94.987 22.9668 93.0664 22.3809C91.1784 21.7624 89.0951 21.4531 86.8164 21.4531C85.0911 21.4531 83.4798 21.6322 81.9824 21.9902C80.5176 22.3158 79.1667 22.8203 77.9297 23.5039C76.9857 24.0247 76.1068 24.627 75.293 25.3105C74.4792 25.9941 73.7305 26.7591 73.0469 27.6055V0.261719H61.377V75.2617H71.9238L72.4609 69.5C73.0469 70.2161 73.6491 70.8835 74.2676 71.502C74.9186 72.0879 75.6022 72.6413 76.3184 73.1621C77.7181 74.1712 79.2969 74.9362 81.0547 75.457C82.8125 75.9779 84.7656 76.2383 86.9141 76.2383C89.0299 76.2383 90.9831 75.9616 92.7734 75.4082C94.5964 74.8874 96.2402 74.1387 97.7051 73.1621C99.528 71.9577 101.09 70.444 102.393 68.6211C103.695 66.7982 104.736 64.7637 105.518 62.5176C106.201 60.6296 106.722 58.5788 107.08 56.3652C107.438 54.1517 107.617 51.8242 107.617 49.3828ZM95.9473 48.3574V49.3828C95.9473 50.8477 95.8659 52.2637 95.7031 53.6309C95.5404 54.998 95.2962 56.2676 94.9707 57.4395C94.5801 59.002 94.0104 60.418 93.2617 61.6875C92.5456 62.9245 91.6178 63.9499 90.4785 64.7637C89.6322 65.3496 88.6719 65.8216 87.5977 66.1797C86.5234 66.5052 85.319 66.668 83.9844 66.668C82.5195 66.668 81.1849 66.4889 79.9805 66.1309C78.8086 65.7402 77.7669 65.2194 76.8555 64.5684C76.0417 63.9499 75.3092 63.25 74.6582 62.4688C74.0397 61.6549 73.5026 60.7598 73.0469 59.7832V37.9082C73.4375 37.0618 73.8932 36.2806 74.4141 35.5645C74.9674 34.8158 75.5859 34.1647 76.2695 33.6113C77.2135 32.7975 78.3203 32.179 79.5898 31.7559C80.8594 31.3001 82.2917 31.0723 83.8867 31.0723C85.1888 31.0723 86.3607 31.2188 87.4023 31.5117C88.444 31.8047 89.3717 32.2441 90.1855 32.8301C91.4225 33.6764 92.3991 34.7181 93.1152 35.9551C93.8639 37.1595 94.4661 38.5104 94.9219 40.0078C95.2474 41.2448 95.4915 42.5794 95.6543 44.0117C95.8496 45.4115 95.9473 46.86 95.9473 48.3574Z" fill="black"/>
<path d="M119.727 48.4062V49.4316C119.727 53.2402 120.199 56.7884 121.143 60.0762C122.087 63.3314 123.454 66.1634 125.244 68.5723C127.035 70.9811 129.215 72.8691 131.787 74.2363C134.391 75.571 137.37 76.2383 140.723 76.2383C142.35 76.2383 143.864 76.0755 145.264 75.75C146.663 75.457 147.965 75.0176 149.17 74.4316C150.114 73.9759 150.993 73.4388 151.807 72.8203C152.653 72.1693 153.434 71.4368 154.15 70.623V95.5742H165.869V22.4297H155.42L154.785 27.752C154.102 26.9382 153.369 26.1895 152.588 25.5059C151.807 24.8223 150.977 24.2363 150.098 23.748C148.796 22.9993 147.363 22.4297 145.801 22.0391C144.271 21.6484 142.611 21.4531 140.82 21.4531C137.435 21.4531 134.424 22.1204 131.787 23.4551C129.183 24.7572 127.002 26.5801 125.244 28.9238C123.421 31.3001 122.038 34.1484 121.094 37.4688C120.182 40.7891 119.727 44.4349 119.727 48.4062ZM131.396 49.4316V48.4062C131.396 46.0299 131.624 43.7839 132.08 41.668C132.568 39.5521 133.333 37.6966 134.375 36.1016C135.352 34.5391 136.605 33.2858 138.135 32.3418C139.697 31.3978 141.569 30.9258 143.75 30.9258C144.987 30.9258 146.126 31.0723 147.168 31.3652C148.242 31.6257 149.202 32.0163 150.049 32.5371C150.928 33.0579 151.693 33.6764 152.344 34.3926C153.027 35.1087 153.63 35.9062 154.15 36.7852V60.8086C153.63 61.7201 153.027 62.5664 152.344 63.3477C151.66 64.0964 150.879 64.7311 150 65.252C149.121 65.7402 148.161 66.1309 147.119 66.4238C146.077 66.6842 144.922 66.8145 143.652 66.8145C141.471 66.8145 139.6 66.3587 138.037 65.4473C136.507 64.5033 135.254 63.2337 134.277 61.6387C133.301 60.0436 132.568 58.2044 132.08 56.1211C131.624 54.0052 131.396 51.7754 131.396 49.4316Z" fill="black"/>
</svg>
