<svg width="408" height="94" viewBox="0 0 408 94" fill="none" xmlns="http://www.w3.org/2000/svg">
<path d="M24.3164 64.5508C21.875 64.5508 19.8405 64.0625 18.2129 63.0859C16.5853 62.1094 15.2995 60.8073 14.3555 59.1797C13.3789 57.6172 12.679 55.8105 12.2559 53.7598C11.8652 51.6764 11.6699 49.5605 11.6699 47.4121V45.7031C11.6699 43.5872 11.8652 41.5039 12.2559 39.4531C12.679 37.4023 13.3952 35.5794 14.4043 33.9844C15.3483 32.3893 16.6178 31.1035 18.2129 30.127C19.8405 29.1178 21.875 28.6133 24.3164 28.6133C25.9115 28.6133 27.3926 28.89 28.7598 29.4434C30.1595 29.9967 31.3639 30.7454 32.373 31.6895C33.3496 32.6335 34.0983 33.7402 34.6191 35.0098C35.1725 36.2793 35.4492 37.6302 35.4492 39.0625H46.4355C46.4681 36.1328 45.931 33.4473 44.8242 31.0059C43.75 28.5645 42.2363 26.4648 40.2832 24.707C38.3301 22.9492 35.9863 21.582 33.252 20.6055C30.5501 19.6289 27.6042 19.1406 24.4141 19.1406C20.3776 19.1406 16.8294 19.8568 13.7695 21.2891C10.7422 22.6888 8.20312 24.5931 6.15234 27.002C4.10156 29.4108 2.55534 32.2266 1.51367 35.4492C0.504557 38.6719 0 42.0898 0 45.7031V47.4121C0 51.0579 0.520833 54.4922 1.5625 57.7148C2.60417 60.9049 4.15039 63.7044 6.20117 66.1133C8.2194 68.5221 10.7422 70.4427 13.7695 71.875C16.8294 73.2747 20.3939 73.9746 24.4629 73.9746C27.3926 73.9746 30.1758 73.5026 32.8125 72.5586C35.4818 71.582 37.8418 70.2474 39.8926 68.5547C41.9108 66.9271 43.5059 64.9902 44.6777 62.7441C45.8822 60.4655 46.4681 58.0404 46.4355 55.4688H35.4492C35.4492 56.8034 35.14 58.0241 34.5215 59.1309C33.9355 60.2376 33.138 61.1979 32.1289 62.0117C31.0872 62.8255 29.8828 63.4603 28.5156 63.916C27.181 64.3392 25.7812 64.5508 24.3164 64.5508Z" fill="black"/>
<path d="M95.1172 72.9492H107.031V72.1191C106.38 70.752 105.876 69.1243 105.518 67.2363C105.192 65.3158 105.029 63.1673 105.029 60.791V37.3047C105.029 34.3099 104.476 31.6732 103.369 29.3945C102.262 27.0833 100.732 25.179 98.7793 23.6816C96.8262 22.1842 94.4987 21.0612 91.7969 20.3125C89.1276 19.5312 86.2467 19.1406 83.1543 19.1406C79.7038 19.1406 76.6276 19.5964 73.9258 20.5078C71.2565 21.3867 69.0104 22.5911 67.1875 24.1211C65.2995 25.6185 63.8672 27.3438 62.8906 29.2969C61.9141 31.25 61.4095 33.2845 61.377 35.4004H73.0957C73.0957 34.3913 73.2747 33.4473 73.6328 32.5684C74.0234 31.6569 74.6094 30.8919 75.3906 30.2734C76.1719 29.5898 77.1484 29.0527 78.3203 28.6621C79.5247 28.2715 80.9245 28.0762 82.5195 28.0762C84.2773 28.0762 85.8236 28.304 87.1582 28.7598C88.5254 29.1829 89.681 29.8014 90.625 30.6152C91.5039 31.429 92.1712 32.3893 92.627 33.4961C93.1152 34.6029 93.3594 35.8398 93.3594 37.207V40.7715H84.8633C81.0547 40.7715 77.6367 41.1296 74.6094 41.8457C71.6146 42.5618 69.0918 43.6035 67.041 44.9707C64.8275 46.4355 63.1348 48.291 61.9629 50.5371C60.8236 52.7507 60.2539 55.306 60.2539 58.2031C60.2539 60.4492 60.6934 62.5488 61.5723 64.502C62.4837 66.4225 63.7533 68.0664 65.3809 69.4336C66.9759 70.8333 68.8965 71.9401 71.1426 72.7539C73.4212 73.5352 75.9277 73.9258 78.6621 73.9258C80.3548 73.9258 81.9336 73.763 83.3984 73.4375C84.8633 73.112 86.2305 72.6562 87.5 72.0703C88.7695 71.5169 89.9089 70.8659 90.918 70.1172C91.9596 69.3359 92.8874 68.5221 93.7012 67.6758C93.8639 68.6849 94.043 69.6615 94.2383 70.6055C94.4661 71.5169 94.7591 72.2982 95.1172 72.9492ZM80.9082 64.5508C79.4108 64.5508 78.1087 64.3717 77.002 64.0137C75.8952 63.623 74.9674 63.1022 74.2188 62.4512C73.4701 61.8001 72.9004 61.0189 72.5098 60.1074C72.1191 59.1634 71.9238 58.1543 71.9238 57.0801C71.9238 55.778 72.1517 54.6061 72.6074 53.5645C73.0957 52.5228 73.8281 51.6276 74.8047 50.8789C75.9115 50 77.3926 49.3327 79.248 48.877C81.1035 48.3887 83.3008 48.1445 85.8398 48.1445H93.3594V57.9102C92.9362 58.7565 92.334 59.5703 91.5527 60.3516C90.7715 61.1328 89.8438 61.8327 88.7695 62.4512C87.6953 63.0697 86.4909 63.5742 85.1562 63.9648C83.8542 64.3555 82.4382 64.5508 80.9082 64.5508Z" fill="black"/>
<path d="M121.533 93.2617H133.203V68.1641C133.822 68.8477 134.489 69.4824 135.205 70.0684C135.921 70.6543 136.67 71.1751 137.451 71.6309C138.786 72.3796 140.234 72.9492 141.797 73.3398C143.392 73.7305 145.133 73.9258 147.021 73.9258C150.342 73.9258 153.288 73.2422 155.859 71.875C158.431 70.5078 160.596 68.6198 162.354 66.2109C164.111 63.8346 165.43 61.0026 166.309 57.7148C167.22 54.4271 167.676 50.8789 167.676 47.0703V46.0449C167.676 42.0736 167.22 38.444 166.309 35.1562C165.397 31.8359 164.079 28.9876 162.354 26.6113C160.596 24.235 158.415 22.3958 155.811 21.0938C153.239 19.7917 150.26 19.1406 146.875 19.1406C145.15 19.1406 143.522 19.3359 141.992 19.7266C140.462 20.0846 139.062 20.6055 137.793 21.2891C136.816 21.8099 135.905 22.4284 135.059 23.1445C134.212 23.8607 133.431 24.6582 132.715 25.5371L132.275 20.1172H121.533V93.2617ZM156.006 46.0449V47.0703C156.006 49.4141 155.778 51.6439 155.322 53.7598C154.867 55.8431 154.134 57.6986 153.125 59.3262C152.148 60.9212 150.879 62.1908 149.316 63.1348C147.786 64.0462 145.931 64.502 143.75 64.502C142.415 64.502 141.195 64.3555 140.088 64.0625C138.981 63.737 137.988 63.3138 137.109 62.793C136.263 62.2396 135.514 61.5885 134.863 60.8398C134.212 60.0911 133.659 59.2611 133.203 58.3496V34.8633C133.724 33.8867 134.326 33.0078 135.01 32.2266C135.726 31.4453 136.556 30.7943 137.5 30.2734C138.314 29.7852 139.242 29.4108 140.283 29.1504C141.325 28.89 142.448 28.7598 143.652 28.7598C145.833 28.7598 147.705 29.2155 149.268 30.127C150.83 31.0384 152.116 32.2754 153.125 33.8379C154.102 35.4004 154.818 37.2396 155.273 39.3555C155.762 41.4388 156.006 43.6686 156.006 46.0449Z" fill="black"/>
<path d="M204.932 7.22656H193.213V20.1172H180.42V28.8574H193.213V54.834C193.213 58.2194 193.652 61.1165 194.531 63.5254C195.443 65.9342 196.696 67.9036 198.291 69.4336C199.886 70.9961 201.79 72.1517 204.004 72.9004C206.25 73.6165 208.708 73.9746 211.377 73.9746C212.842 73.9746 214.307 73.8932 215.771 73.7305C217.269 73.6003 218.701 73.4049 220.068 73.1445C221.436 72.8841 222.705 72.5749 223.877 72.2168C225.081 71.8262 226.107 71.3704 226.953 70.8496L225.684 62.793C225.098 62.9232 224.365 63.0859 223.486 63.2812C222.64 63.444 221.729 63.5905 220.752 63.7207C219.743 63.8835 218.701 64.0137 217.627 64.1113C216.553 64.209 215.511 64.2578 214.502 64.2578C213.102 64.2578 211.816 64.0951 210.645 63.7695C209.473 63.444 208.464 62.8906 207.617 62.1094C206.771 61.3607 206.104 60.3353 205.615 59.0332C205.16 57.6986 204.932 56.0547 204.932 54.1016V28.8574H224.805V20.1172H204.932V7.22656Z" fill="black"/>
<path d="M275.293 72.9492H287.207V72.1191C286.556 70.752 286.051 69.1243 285.693 67.2363C285.368 65.3158 285.205 63.1673 285.205 60.791V37.3047C285.205 34.3099 284.652 31.6732 283.545 29.3945C282.438 27.0833 280.908 25.179 278.955 23.6816C277.002 22.1842 274.674 21.0612 271.973 20.3125C269.303 19.5312 266.423 19.1406 263.33 19.1406C259.88 19.1406 256.803 19.5964 254.102 20.5078C251.432 21.3867 249.186 22.5911 247.363 24.1211C245.475 25.6185 244.043 27.3438 243.066 29.2969C242.09 31.25 241.585 33.2845 241.553 35.4004H253.271C253.271 34.3913 253.451 33.4473 253.809 32.5684C254.199 31.6569 254.785 30.8919 255.566 30.2734C256.348 29.5898 257.324 29.0527 258.496 28.6621C259.701 28.2715 261.1 28.0762 262.695 28.0762C264.453 28.0762 265.999 28.304 267.334 28.7598C268.701 29.1829 269.857 29.8014 270.801 30.6152C271.68 31.429 272.347 32.3893 272.803 33.4961C273.291 34.6029 273.535 35.8398 273.535 37.207V40.7715H265.039C261.23 40.7715 257.812 41.1296 254.785 41.8457C251.79 42.5618 249.268 43.6035 247.217 44.9707C245.003 46.4355 243.311 48.291 242.139 50.5371C240.999 52.7507 240.43 55.306 240.43 58.2031C240.43 60.4492 240.869 62.5488 241.748 64.502C242.66 66.4225 243.929 68.0664 245.557 69.4336C247.152 70.8333 249.072 71.9401 251.318 72.7539C253.597 73.5352 256.104 73.9258 258.838 73.9258C260.531 73.9258 262.109 73.763 263.574 73.4375C265.039 73.112 266.406 72.6562 267.676 72.0703C268.945 71.5169 270.085 70.8659 271.094 70.1172C272.135 69.3359 273.063 68.5221 273.877 67.6758C274.04 68.6849 274.219 69.6615 274.414 70.6055C274.642 71.5169 274.935 72.2982 275.293 72.9492ZM261.084 64.5508C259.587 64.5508 258.285 64.3717 257.178 64.0137C256.071 63.623 255.143 63.1022 254.395 62.4512C253.646 61.8001 253.076 61.0189 252.686 60.1074C252.295 59.1634 252.1 58.1543 252.1 57.0801C252.1 55.778 252.327 54.6061 252.783 53.5645C253.271 52.5228 254.004 51.6276 254.98 50.8789C256.087 50 257.568 49.3327 259.424 48.877C261.279 48.3887 263.477 48.1445 266.016 48.1445H273.535V57.9102C273.112 58.7565 272.51 59.5703 271.729 60.3516C270.947 61.1328 270.02 61.8327 268.945 62.4512C267.871 63.0697 266.667 63.5742 265.332 63.9648C264.03 64.3555 262.614 64.5508 261.084 64.5508Z" fill="black"/>
<path d="M304.297 20.1172V29.834H320.557V63.2812H304.297V72.9492H347.852V63.2812H332.324V20.1172H304.297ZM319.482 6.44531C319.482 7.68229 319.775 8.77279 320.361 9.7168C320.98 10.6283 321.875 11.263 323.047 11.6211C324.186 11.9792 325.228 12.0605 326.172 11.8652C327.116 11.6699 327.93 11.263 328.613 10.6445C329.98 10.2865 331.022 9.58659 331.738 8.54492C332.454 7.4707 332.699 6.21745 332.471 4.78516C332.308 3.38542 331.673 2.24609 330.566 1.36719C329.492 0.455729 328.076 0 326.318 0C325.277 0 324.333 0.16276 323.486 0.488281C322.673 0.78125 321.973 1.20443 321.387 1.75781C320.768 2.34375 320.296 3.04362 319.971 3.85742C319.645 4.63867 319.482 5.5013 319.482 6.44531Z" fill="black"/>
<path d="M361.67 72.9492H373.34V35.2539C373.861 34.375 374.463 33.5612 375.146 32.8125C375.83 32.0638 376.562 31.429 377.344 30.9082C378.353 30.2246 379.476 29.7038 380.713 29.3457C381.95 28.9551 383.285 28.7598 384.717 28.7598C386.442 28.7598 387.972 28.9551 389.307 29.3457C390.641 29.7038 391.781 30.3223 392.725 31.2012C393.669 32.0801 394.385 33.252 394.873 34.7168C395.361 36.1816 395.605 38.0046 395.605 40.1855V72.9492H407.275V39.9902C407.275 36.2793 406.836 33.1217 405.957 30.5176C405.078 27.8809 403.841 25.7161 402.246 24.0234C400.651 22.3307 398.73 21.0938 396.484 20.3125C394.238 19.5312 391.764 19.1406 389.062 19.1406C387.012 19.1406 385.059 19.4336 383.203 20.0195C381.348 20.6055 379.639 21.4355 378.076 22.5098C377.1 23.1934 376.172 23.9746 375.293 24.8535C374.447 25.6999 373.665 26.6276 372.949 27.6367L372.217 20.1172H361.67V72.9492Z" fill="black"/>
</svg>
